<svg width="510" height="138" viewBox="0 0 510 138" fill="none" xmlns="http://www.w3.org/2000/svg">
<g clip-path="url(#clip0_4_5)">
<path d="M222.84 4.00004C222.84 1.79088 224.63 0 226.84 0H282.84C285.05 0 286.84 1.79088 286.84 4.00004V60.0006C286.84 62.2098 285.05 64.0007 282.84 64.0007H226.84C224.63 64.0007 222.84 62.2098 222.84 60.0006V4.00004Z" fill="#0278FE"/>
<path d="M286.84 12H222.84V16H286.84V12Z" fill="#2A2C2F"/>
<path d="M248.84 12H244.84V64.0005H248.84V12Z" fill="#2A2C2F"/>
<path d="M237.465 137.49L239.141 131.921H248.743L250.419 137.49H258.943L249.341 108.398H238.545L228.943 137.49H237.465ZM240.931 126.012L243.829 116.41H244.057L246.955 126.012H240.931Z" fill="white"/>
<path d="M261.745 137.49H269.643V127.887H272.369L277.483 137.49H286.063L280.153 126.637C283.251 125.146 285.097 122.319 285.097 118.285C285.097 112.092 280.765 108.398 274.301 108.398H261.745V137.49ZM269.643 121.751V114.705H272.427C275.197 114.705 276.859 115.785 276.859 118.285C276.859 120.771 275.197 121.751 272.427 121.751H269.643Z" fill="white"/>
<path d="M287.668 114.762H296.418V137.49H304.202V114.762H312.952V108.398H287.668V114.762Z" fill="white"/>
<path d="M342.786 118.001H350.768C350.158 112.163 344.86 108.001 337.984 108.001C330.144 108.001 323.78 113.399 323.78 123.001C323.78 132.206 329.548 137.887 338.042 137.887C345.656 137.887 351.11 133.228 351.11 125.274V121.24H338.212V126.865H343.496C343.426 129.393 341.636 131.012 338.098 131.012C334.008 131.012 331.906 128.001 331.906 122.887C331.906 117.845 334.178 114.876 338.156 114.876C340.626 114.876 342.304 116.012 342.786 118.001Z" fill="white"/>
<path d="M361.451 137.49L363.127 131.921H372.731L374.407 137.49H382.929L373.327 108.398H362.531L352.928 137.49H361.451ZM364.917 126.012L367.815 116.41H368.043L370.941 126.012H364.917Z" fill="white"/>
<path d="M385.73 137.49H405.391V131.126H393.629V108.398H385.73V137.49Z" fill="white"/>
<path d="M408.582 137.49H428.24V131.126H416.48V108.398H408.582V137.49Z" fill="white"/>
<path d="M431.435 137.49H452.343V131.126H439.331V126.126H451.321V119.762H439.331V114.762H452.399V108.398H431.435V137.49Z" fill="white"/>
<path d="M456.317 137.49H464.215V127.887H466.941L472.055 137.49H480.635L474.725 126.637C477.823 125.146 479.669 122.319 479.669 118.285C479.669 112.092 475.337 108.398 468.873 108.398H456.317V137.49ZM464.215 121.751V114.705H466.999C469.769 114.705 471.431 115.785 471.431 118.285C471.431 120.771 469.769 121.751 466.999 121.751H464.215Z" fill="white"/>
<path d="M480.476 108.398L491.158 128.342V137.49H498.998V128.342L509.68 108.398H500.874L495.192 120.217H494.964L489.284 108.398H480.476Z" fill="white"/>
<path d="M218.114 108.398V137.49H211.523L201.012 122.205H200.841V137.49H192.943V108.398H199.648L209.989 123.626H210.216V108.398H218.114Z" fill="white"/>
<path d="M168.062 137.49V108.398H189.028V114.762H175.96V119.762H187.949V126.126H175.96V131.126H188.972V137.49H168.062Z" fill="white"/>
<path d="M139.806 114.762V108.398H165.09V114.762H156.34V137.49H148.556V114.762H139.806Z" fill="white"/>
<path d="M115.718 137.49V108.398H136.684V114.762H123.616V119.762H135.605V126.126H123.616V131.126H136.627V137.49H115.718Z" fill="white"/>
<path d="M92.8652 137.49V108.398H100.763V131.126H112.524V137.49H92.8652Z" fill="white"/>
<path d="M66.615 137.49V108.398H79.1719C81.331 108.398 83.2202 108.825 84.8396 109.677C86.4589 110.529 87.7184 111.727 88.618 113.271C89.5176 114.814 89.9674 116.618 89.9674 118.683C89.9674 120.766 89.5034 122.57 88.5754 124.095C87.6568 125.619 86.3642 126.793 84.6975 127.617C83.0403 128.441 81.1037 128.853 78.8878 128.853H71.3878V122.717H77.2969C78.2249 122.717 79.0156 122.556 79.6691 122.234C80.3319 121.902 80.8386 121.434 81.189 120.828C81.5488 120.221 81.7287 119.506 81.7287 118.683C81.7287 117.849 81.5488 117.139 81.189 116.552C80.8386 115.955 80.3319 115.501 79.6691 115.188C79.0156 114.866 78.2249 114.705 77.2969 114.705H74.5128V137.49H66.615Z" fill="white"/>
<path d="M62.8729 108.398V137.49H54.9751V108.398H62.8729Z" fill="white"/>
<path d="M28.2561 137.49V108.398H40.813C42.9721 108.398 44.8613 108.791 46.4807 109.577C48.1 110.363 49.3595 111.495 50.2591 112.972C51.1587 114.45 51.6085 116.22 51.6085 118.285C51.6085 120.368 51.1445 122.125 50.2165 123.555C49.2979 124.985 48.0053 126.064 46.3386 126.793C44.6814 127.523 42.7448 127.887 40.5289 127.887H33.0289V121.751H38.938C39.866 121.751 40.6568 121.637 41.3102 121.41C41.9731 121.173 42.4797 120.799 42.8301 120.288C43.1899 119.776 43.3699 119.109 43.3699 118.285C43.3699 117.452 43.1899 116.774 42.8301 116.254C42.4797 115.723 41.9731 115.335 41.3102 115.089C40.6568 114.833 39.866 114.705 38.938 114.705H36.1539V137.49H28.2561ZM45.3017 124.137L52.5745 137.49H43.9949L36.8925 124.137H45.3017Z" fill="white"/>
<path d="M0 114.762V108.398H25.2843V114.762H16.5342V137.49H8.75006V114.762H0Z" fill="white"/>
</g>
<defs>
<clipPath id="clip0_4_5">
<rect width="509.68" height="137.888" fill="white"/>
</clipPath>
</defs>
</svg>
